<svg width="118" height="121" viewBox="0 0 118 121" fill="none" xmlns="http://www.w3.org/2000/svg">
<circle cx="42.4609" cy="25.368" r="2.98246" transform="rotate(82.0119 42.4609 25.368)" fill="#FF90A0"/>
<circle cx="110.567" cy="15.5676" r="5.81579" transform="rotate(82.0119 110.567 15.5676)" fill="#CDEEEC"/>
<circle cx="52.3682" cy="96.368" r="2.98246" transform="rotate(82.0119 52.3682 96.368)" fill="#96DAD5"/>
<circle cx="11.4609" cy="72.368" r="2.98246" transform="rotate(82.0119 11.4609 72.368)" fill="#2A8C79"/>
<circle cx="99.2515" cy="100.252" r="6.94167" transform="rotate(82.0119 99.2515 100.252)" stroke="#FF90A0" stroke-width="0.730702"/>
<circle cx="26.2228" cy="112.222" r="5.81579" transform="rotate(-136.343 26.2228 112.222)" fill="#CDEEEC"/>
<circle cx="64.2166" cy="4.21668" r="2.98246" transform="rotate(-136.343 64.2166 4.21668)" fill="#96DAD5"/>
<circle cx="107.901" cy="52.7833" r="2.98246" transform="rotate(-136.343 107.901 52.7833)" fill="#2A8C79"/>
<circle cx="10.331" cy="25.3308" r="6.94167" transform="rotate(-136.343 10.331 25.3308)" stroke="#2A8C79" stroke-width="0.730702"/>
<path d="M54.5032 32.5097C55.6385 29.0157 60.5816 29.0157 61.7169 32.5097L66.0393 45.8128C66.547 47.3754 68.0032 48.4333 69.6462 48.4333H83.6338C87.3077 48.4333 88.8352 53.1345 85.863 55.294L74.5468 63.5157C73.2175 64.4814 72.6613 66.1932 73.1691 67.7558L77.4915 81.0588C78.6268 84.5529 74.6277 87.4584 71.6554 85.299L60.3392 77.0773C59.01 76.1115 57.2101 76.1115 55.8809 77.0773L44.5646 85.299C41.5924 87.4584 37.5933 84.5529 38.7286 81.0589L43.051 67.7558C43.5587 66.1932 43.0025 64.4814 41.6733 63.5157L30.3571 55.294C27.3849 53.1345 28.9124 48.4333 32.5863 48.4333H46.5739C48.2169 48.4333 49.673 47.3754 50.1808 45.8128L54.5032 32.5097Z" fill="#FED766"/>
</svg>
