<svg width="307" height="46" viewBox="0 0 307 46" fill="none" xmlns="http://www.w3.org/2000/svg">
<path d="M20.5109 6.63465C21.1895 4.54635 24.1439 4.54635 24.8224 6.63465L27.2468 14.0961C27.5502 15.03 28.4205 15.6623 29.4025 15.6623H37.2479C39.4436 15.6623 40.3566 18.4721 38.5802 19.7627L32.2331 24.3741C31.4387 24.9513 31.1063 25.9744 31.4097 26.9083L33.8341 34.3697C34.5126 36.458 32.1224 38.1946 30.346 36.9039L23.999 32.2925C23.2045 31.7154 22.1288 31.7154 21.3344 32.2925L14.9873 36.9039C13.2109 38.1946 10.8207 36.458 11.4993 34.3697L13.9236 26.9083C14.2271 25.9744 13.8946 24.9513 13.1002 24.3741L6.75316 19.7627C4.97674 18.4721 5.8897 15.6623 8.08547 15.6623H15.9309C16.9128 15.6623 17.7831 15.03 18.0866 14.0961L20.5109 6.63465Z" fill="#FED766"/>
<path d="M86.6896 6.90933C87.102 5.63997 88.8978 5.63997 89.3103 6.90933L90.1556 6.63465L89.3103 6.90933L91.7346 14.3707C92.1571 15.6709 93.3687 16.5512 94.7357 16.5512H102.581C103.916 16.5512 104.471 18.2591 103.391 19.0436L97.0439 23.655C95.9379 24.4585 95.4751 25.8829 95.8976 27.183L98.3219 34.6444C98.7344 35.9138 97.2815 36.9693 96.2018 36.1848L89.8547 31.5734C88.7487 30.7699 87.2511 30.7699 86.1451 31.5734L79.7981 36.1848C78.7183 36.9693 77.2655 35.9138 77.6779 34.6444L80.1023 27.183C80.5247 25.8829 80.0619 24.4585 78.9559 23.655L72.6089 19.0436C71.5291 18.2591 72.084 16.5512 73.4187 16.5512H81.2641C82.6312 16.5512 83.8428 15.6709 84.2652 14.3707L86.6896 6.90933Z" stroke="#FED766" stroke-width="1.77778"/>
<path d="M152.023 6.90933C152.435 5.63997 154.231 5.63997 154.644 6.90933L155.489 6.63465L154.644 6.90933L157.068 14.3707C157.49 15.6709 158.702 16.5512 160.069 16.5512H167.914C169.249 16.5512 169.804 18.2591 168.724 19.0436L162.377 23.655C161.271 24.4585 160.808 25.8829 161.231 27.183L163.655 34.6444C164.068 35.9138 162.615 36.9693 161.535 36.1848L155.188 31.5734C154.082 30.7699 152.584 30.7699 151.478 31.5734L145.131 36.1848C144.052 36.9693 142.599 35.9138 143.011 34.6444L145.436 27.183C145.858 25.8829 145.395 24.4585 144.289 23.655L137.942 19.0436C136.862 18.2591 137.417 16.5512 138.752 16.5512H146.597C147.964 16.5512 149.176 15.6709 149.598 14.3707L152.023 6.90933Z" stroke="#FED766" stroke-width="1.77778"/>
<path d="M217.356 6.90933C217.769 5.63997 219.565 5.63997 219.977 6.90933L220.822 6.63465L219.977 6.90933L222.401 14.3707C222.824 15.6709 224.035 16.5512 225.402 16.5512H233.248C234.583 16.5512 235.137 18.2591 234.058 19.0436L227.711 23.655C226.605 24.4585 226.142 25.8829 226.564 27.183L228.989 34.6444C229.401 35.9138 227.948 36.9693 226.869 36.1848L220.521 31.5734C219.415 30.7699 217.918 30.7699 216.812 31.5734L210.465 36.1848C209.385 36.9693 207.932 35.9138 208.345 34.6444L210.769 27.183C211.191 25.8829 210.729 24.4585 209.623 23.655L203.276 19.0436C202.196 18.2591 202.751 16.5512 204.085 16.5512H211.931C213.298 16.5512 214.51 15.6709 214.932 14.3707L217.356 6.90933Z" stroke="#FED766" stroke-width="1.77778"/>
<path d="M282.689 6.90933C283.102 5.63997 284.898 5.63997 285.31 6.90933L286.155 6.63465L285.31 6.90933L287.734 14.3707C288.157 15.6709 289.368 16.5512 290.735 16.5512H298.581C299.916 16.5512 300.47 18.2591 299.391 19.0436L293.044 23.655C291.938 24.4585 291.475 25.8829 291.897 27.183L294.322 34.6444C294.734 35.9138 293.281 36.9693 292.202 36.1848L285.854 31.5734C284.748 30.7699 283.251 30.7699 282.145 31.5734L275.798 36.1848C274.718 36.9693 273.265 35.9138 273.678 34.6444L276.102 27.183C276.524 25.8829 276.062 24.4585 274.956 23.655L268.609 19.0436C267.529 18.2591 268.084 16.5512 269.418 16.5512H277.264C278.631 16.5512 279.843 15.6709 280.265 14.3707L282.689 6.90933Z" stroke="#FED766" stroke-width="1.77778"/>
</svg>
