<svg width="266" height="40" viewBox="0 0 266 40" fill="none" xmlns="http://www.w3.org/2000/svg">
<line x1="39" y1="18.5" x2="116" y2="18.5" stroke="#FF303F" stroke-width="3"/>
<line x1="152" y1="18.5" x2="229" y2="18.5" stroke="#FF303F" stroke-width="3"/>
<circle cx="20" cy="20" r="18.5" fill="white" stroke="#FF303F" stroke-width="3"/>
<path d="M21.9883 28H19.1523V14.3008L14.9688 15.7305V13.3281L21.625 10.8789H21.9883V28Z" fill="#FF303F"/>
<path d="M21.9883 28V31H24.9883V28H21.9883ZM19.1523 28H16.1523V31H19.1523V28ZM19.1523 14.3008H22.1523V10.1052L18.1822 11.462L19.1523 14.3008ZM14.9688 15.7305H11.9688V19.926L15.9389 18.5693L14.9688 15.7305ZM14.9688 13.3281L13.9328 10.5127L11.9688 11.2354V13.3281H14.9688ZM21.625 10.8789V7.87891H21.0906L20.589 8.06345L21.625 10.8789ZM21.9883 10.8789H24.9883V7.87891H21.9883V10.8789ZM21.9883 25H19.1523V31H21.9883V25ZM22.1523 28V14.3008H16.1523V28H22.1523ZM18.1822 11.462L13.9986 12.8917L15.9389 18.5693L20.1225 17.1396L18.1822 11.462ZM17.9688 15.7305V13.3281H11.9688V15.7305H17.9688ZM16.0047 16.1436L22.661 13.6944L20.589 8.06345L13.9328 10.5127L16.0047 16.1436ZM21.625 13.8789H21.9883V7.87891H21.625V13.8789ZM18.9883 10.8789V28H24.9883V10.8789H18.9883Z" fill="#FF303F"/>
<circle cx="20" cy="20" r="20" fill="#FF303F"/>
<path d="M21.9883 28H19.1523V14.3008L14.9688 15.7305V13.3281L21.625 10.8789H21.9883V28Z" fill="white"/>
<circle cx="133" cy="20" r="18.5" fill="white" stroke="#FF303F" stroke-width="3"/>
<path d="M138.75 28H127.277V26.043L132.961 19.8438C133.781 18.9297 134.363 18.168 134.707 17.5586C135.059 16.9414 135.234 16.3242 135.234 15.707C135.234 14.8945 135.004 14.2383 134.543 13.7383C134.09 13.2383 133.477 12.9883 132.703 12.9883C131.781 12.9883 131.066 13.2695 130.559 13.832C130.051 14.3945 129.797 15.1641 129.797 16.1406H126.949C126.949 15.1016 127.184 14.168 127.652 13.3398C128.129 12.5039 128.805 11.8555 129.68 11.3945C130.562 10.9336 131.578 10.7031 132.727 10.7031C134.383 10.7031 135.688 11.1211 136.641 11.957C137.602 12.7852 138.082 13.9336 138.082 15.4023C138.082 16.2539 137.84 17.1484 137.355 18.0859C136.879 19.0156 136.094 20.0742 135 21.2617L130.828 25.7266H138.75V28Z" fill="#FF303F"/>
<path d="M138.75 28V31H141.75V28H138.75ZM127.277 28H124.277V31H127.277V28ZM127.277 26.043L125.066 24.0156L124.277 24.8759V26.043H127.277ZM132.961 19.8438L135.172 21.8711L135.183 21.8594L135.194 21.8475L132.961 19.8438ZM134.707 17.5586L132.1 16.0737L132.094 16.0846L134.707 17.5586ZM134.543 13.7383L132.32 15.7528L132.329 15.7623L132.337 15.7717L134.543 13.7383ZM129.797 16.1406V19.1406H132.797V16.1406H129.797ZM126.949 16.1406H123.949V19.1406H126.949V16.1406ZM127.652 13.3398L125.046 11.854L125.042 11.862L127.652 13.3398ZM129.68 11.3945L128.291 8.73518L128.281 8.74029L129.68 11.3945ZM136.641 11.957L134.662 14.2125L134.672 14.2211L134.682 14.2296L136.641 11.957ZM137.355 18.0859L134.69 16.7089L134.686 16.7174L137.355 18.0859ZM135 21.2617L137.192 23.3099L137.199 23.3021L137.207 23.2941L135 21.2617ZM130.828 25.7266L128.636 23.6784L123.919 28.7266H130.828V25.7266ZM138.75 25.7266H141.75V22.7266H138.75V25.7266ZM138.75 25H127.277V31H138.75V25ZM130.277 28V26.043H124.277V28H130.277ZM129.489 28.0703L135.172 21.8711L130.75 17.8164L125.066 24.0156L129.489 28.0703ZM135.194 21.8475C136.068 20.8732 136.818 19.9224 137.32 19.0326L132.094 16.0846C131.909 16.4135 131.494 16.9862 130.728 17.84L135.194 21.8475ZM137.314 19.0435C137.884 18.0429 138.234 16.9191 138.234 15.707H132.234C132.234 15.7294 132.233 15.8399 132.1 16.0737L137.314 19.0435ZM138.234 15.707C138.234 14.2964 137.817 12.8634 136.749 11.7049L132.337 15.7717C132.314 15.7467 132.291 15.7162 132.271 15.6822C132.25 15.6484 132.238 15.6193 132.231 15.5995C132.217 15.5596 132.234 15.5836 132.234 15.707H138.234ZM136.766 11.7237C135.658 10.5017 134.187 9.98828 132.703 9.98828V15.9883C132.766 15.9883 132.719 15.9978 132.611 15.9538C132.493 15.9059 132.389 15.8293 132.32 15.7528L136.766 11.7237ZM132.703 9.98828C131.132 9.98828 129.529 10.4951 128.332 11.8217L132.785 15.8423C132.76 15.8709 132.725 15.9027 132.682 15.932C132.64 15.9613 132.601 15.9801 132.574 15.9909C132.519 16.0125 132.545 15.9883 132.703 15.9883V9.98828ZM128.332 11.8217C127.196 13.0799 126.797 14.6421 126.797 16.1406H132.797C132.797 15.9083 132.827 15.7977 132.836 15.7711C132.84 15.7588 132.84 15.7646 132.83 15.782C132.819 15.7998 132.804 15.8213 132.785 15.8423L128.332 11.8217ZM129.797 13.1406H126.949V19.1406H129.797V13.1406ZM129.949 16.1406C129.949 15.5706 130.073 15.1543 130.263 14.8176L125.042 11.862C124.295 13.1817 123.949 14.6325 123.949 16.1406H129.949ZM130.259 14.8256C130.444 14.5007 130.694 14.2511 131.078 14.0488L128.281 8.74029C126.916 9.45984 125.814 10.5071 125.046 11.8541L130.259 14.8256ZM131.068 14.0539C131.461 13.8488 131.987 13.7031 132.727 13.7031V7.70312C131.169 7.70312 129.664 8.01839 128.291 8.7352L131.068 14.0539ZM132.727 13.7031C133.883 13.7031 134.406 13.9879 134.662 14.2125L138.619 9.70159C136.969 8.25431 134.883 7.70312 132.727 7.70312V13.7031ZM134.682 14.2296C134.874 14.3951 135.082 14.6538 135.082 15.4023H141.082C141.082 13.2134 140.329 11.1752 138.599 9.68449L134.682 14.2296ZM135.082 15.4023C135.082 15.6736 135.006 16.0971 134.69 16.7089L140.021 19.463C140.673 18.1998 141.082 16.8342 141.082 15.4023H135.082ZM134.686 16.7174C134.381 17.3124 133.792 18.1453 132.793 19.2293L137.207 23.2941C138.396 22.0031 139.377 20.7189 140.025 19.4544L134.686 16.7174ZM132.808 19.2135L128.636 23.6784L133.02 27.7747L137.192 23.3099L132.808 19.2135ZM130.828 28.7266H138.75V22.7266H130.828V28.7266ZM135.75 25.7266V28H141.75V25.7266H135.75Z" fill="#FF303F"/>
<circle cx="133" cy="20" r="18.5" fill="#FF303F" stroke="#FF303F" stroke-width="3"/>
<path d="M138.75 28H127.277V26.043L132.961 19.8438C133.781 18.9297 134.363 18.168 134.707 17.5586C135.059 16.9414 135.234 16.3242 135.234 15.707C135.234 14.8945 135.004 14.2383 134.543 13.7383C134.09 13.2383 133.477 12.9883 132.703 12.9883C131.781 12.9883 131.066 13.2695 130.559 13.832C130.051 14.3945 129.797 15.1641 129.797 16.1406H126.949C126.949 15.1016 127.184 14.168 127.652 13.3398C128.129 12.5039 128.805 11.8555 129.68 11.3945C130.562 10.9336 131.578 10.7031 132.727 10.7031C134.383 10.7031 135.688 11.1211 136.641 11.957C137.602 12.7852 138.082 13.9336 138.082 15.4023C138.082 16.2539 137.84 17.1484 137.355 18.0859C136.879 19.0156 136.094 20.0742 135 21.2617L130.828 25.7266H138.75V28Z" fill="white"/>
<path d="M138.75 28V31H141.75V28H138.75ZM127.277 28H124.277V31H127.277V28ZM127.277 26.043L125.066 24.0156L124.277 24.8759V26.043H127.277ZM132.961 19.8438L135.172 21.8711L135.183 21.8594L135.194 21.8475L132.961 19.8438ZM134.707 17.5586L132.1 16.0737L132.094 16.0846L134.707 17.5586ZM134.543 13.7383L132.32 15.7528L132.329 15.7623L132.337 15.7717L134.543 13.7383ZM129.797 16.1406V19.1406H132.797V16.1406H129.797ZM126.949 16.1406H123.949V19.1406H126.949V16.1406ZM127.652 13.3398L125.046 11.854L125.042 11.862L127.652 13.3398ZM129.68 11.3945L128.291 8.73518L128.281 8.74029L129.68 11.3945ZM136.641 11.957L134.662 14.2125L134.672 14.2211L134.682 14.2296L136.641 11.957ZM137.355 18.0859L134.69 16.7089L134.686 16.7174L137.355 18.0859ZM135 21.2617L137.192 23.3099L137.199 23.3021L137.207 23.2941L135 21.2617ZM130.828 25.7266L128.636 23.6784L123.919 28.7266H130.828V25.7266ZM138.75 25.7266H141.75V22.7266H138.75V25.7266ZM138.75 25H127.277V31H138.75V25ZM130.277 28V26.043H124.277V28H130.277ZM129.489 28.0703L135.172 21.8711L130.75 17.8164L125.066 24.0156L129.489 28.0703ZM135.194 21.8475C136.068 20.8732 136.818 19.9224 137.32 19.0326L132.094 16.0846C131.909 16.4135 131.494 16.9862 130.728 17.84L135.194 21.8475ZM137.314 19.0435C137.884 18.0429 138.234 16.9191 138.234 15.707H132.234C132.234 15.7294 132.233 15.8399 132.1 16.0737L137.314 19.0435ZM138.234 15.707C138.234 14.2964 137.817 12.8634 136.749 11.7049L132.337 15.7717C132.314 15.7467 132.291 15.7162 132.271 15.6822C132.25 15.6484 132.238 15.6193 132.231 15.5995C132.217 15.5596 132.234 15.5836 132.234 15.707H138.234ZM136.766 11.7237C135.658 10.5017 134.187 9.98828 132.703 9.98828V15.9883C132.766 15.9883 132.719 15.9978 132.611 15.9538C132.493 15.9059 132.389 15.8293 132.32 15.7528L136.766 11.7237ZM132.703 9.98828C131.132 9.98828 129.529 10.4951 128.332 11.8217L132.785 15.8423C132.76 15.8709 132.725 15.9027 132.682 15.932C132.64 15.9613 132.601 15.9801 132.574 15.9909C132.519 16.0125 132.545 15.9883 132.703 15.9883V9.98828ZM128.332 11.8217C127.196 13.0799 126.797 14.6421 126.797 16.1406H132.797C132.797 15.9083 132.827 15.7977 132.836 15.7711C132.84 15.7588 132.84 15.7646 132.83 15.782C132.819 15.7998 132.804 15.8213 132.785 15.8423L128.332 11.8217ZM129.797 13.1406H126.949V19.1406H129.797V13.1406ZM129.949 16.1406C129.949 15.5706 130.073 15.1543 130.263 14.8176L125.042 11.862C124.295 13.1817 123.949 14.6325 123.949 16.1406H129.949ZM130.259 14.8256C130.444 14.5007 130.694 14.2511 131.078 14.0488L128.281 8.74029C126.916 9.45984 125.814 10.5071 125.046 11.8541L130.259 14.8256ZM131.068 14.0539C131.461 13.8488 131.987 13.7031 132.727 13.7031V7.70312C131.169 7.70312 129.664 8.01839 128.291 8.7352L131.068 14.0539ZM132.727 13.7031C133.883 13.7031 134.406 13.9879 134.662 14.2125L138.619 9.70159C136.969 8.25431 134.883 7.70312 132.727 7.70312V13.7031ZM134.682 14.2296C134.874 14.3951 135.082 14.6538 135.082 15.4023H141.082C141.082 13.2134 140.329 11.1752 138.599 9.68449L134.682 14.2296ZM135.082 15.4023C135.082 15.6736 135.006 16.0971 134.69 16.7089L140.021 19.463C140.673 18.1998 141.082 16.8342 141.082 15.4023H135.082ZM134.686 16.7174C134.381 17.3124 133.792 18.1453 132.793 19.2293L137.207 23.2941C138.396 22.0031 139.377 20.7189 140.025 19.4544L134.686 16.7174ZM132.808 19.2135L128.636 23.6784L133.02 27.7747L137.192 23.3099L132.808 19.2135ZM130.828 28.7266H138.75V22.7266H130.828V28.7266ZM135.75 25.7266V28H141.75V25.7266H135.75Z" fill="white"/>
<circle cx="246" cy="20" r="18.5" fill="white" stroke="#FF303F" stroke-width="3"/>
<path d="M243.57 18.168H245.305C246.18 18.1602 246.871 17.9336 247.379 17.4883C247.895 17.043 248.152 16.3984 248.152 15.5547C248.152 14.7422 247.938 14.1133 247.508 13.668C247.086 13.2148 246.438 12.9883 245.562 12.9883C244.797 12.9883 244.168 13.2109 243.676 13.6562C243.184 14.0938 242.938 14.668 242.938 15.3789H240.09C240.09 14.5039 240.32 13.707 240.781 12.9883C241.25 12.2695 241.898 11.7109 242.727 11.3125C243.562 10.9062 244.496 10.7031 245.527 10.7031C247.23 10.7031 248.566 11.1328 249.535 11.9922C250.512 12.8438 251 14.0312 251 15.5547C251 16.3203 250.754 17.043 250.262 17.7227C249.777 18.3945 249.148 18.9023 248.375 19.2461C249.312 19.5664 250.023 20.0703 250.508 20.7578C251 21.4453 251.246 22.2656 251.246 23.2188C251.246 24.75 250.719 25.9688 249.664 26.875C248.617 27.7812 247.238 28.2344 245.527 28.2344C243.887 28.2344 242.543 27.7969 241.496 26.9219C240.449 26.0469 239.926 24.8828 239.926 23.4297H242.773C242.773 24.1797 243.023 24.7891 243.523 25.2578C244.031 25.7266 244.711 25.9609 245.562 25.9609C246.445 25.9609 247.141 25.7266 247.648 25.2578C248.156 24.7891 248.41 24.1094 248.41 23.2188C248.41 22.3203 248.145 21.6289 247.613 21.1445C247.082 20.6602 246.293 20.418 245.246 20.418H243.57V18.168Z" fill="#FF303F"/>
<path d="M243.57 18.168V15.168H240.57V18.168H243.57ZM245.305 18.168V21.168H245.318L245.331 21.1678L245.305 18.168ZM247.379 17.4883L245.418 15.2178L245.409 15.2252L245.401 15.2327L247.379 17.4883ZM247.508 13.668L245.312 15.7122L245.33 15.7318L245.349 15.7511L247.508 13.668ZM243.676 13.6562L245.669 15.8985L245.679 15.8897L245.689 15.8809L243.676 13.6562ZM242.938 15.3789V18.3789H245.938V15.3789H242.938ZM240.09 15.3789H237.09V18.3789H240.09V15.3789ZM240.781 12.9883L238.268 11.3495L238.262 11.3591L238.256 11.3688L240.781 12.9883ZM242.727 11.3125L244.027 14.0159L244.038 14.0107L242.727 11.3125ZM249.535 11.9922L247.544 14.2364L247.554 14.2449L247.563 14.2533L249.535 11.9922ZM250.262 17.7227L247.832 15.9631L247.828 15.9683L250.262 17.7227ZM248.375 19.2461L247.157 16.5047L240.166 19.6116L247.405 22.085L248.375 19.2461ZM250.508 20.7578L248.055 22.4857L248.062 22.4949L248.068 22.5041L250.508 20.7578ZM249.664 26.875L247.709 24.5996L247.701 24.6068L249.664 26.875ZM239.926 23.4297V20.4297H236.926V23.4297H239.926ZM242.773 23.4297H245.773V20.4297H242.773V23.4297ZM243.523 25.2578L241.472 27.4464L241.48 27.4544L241.489 27.4622L243.523 25.2578ZM243.57 20.418H240.57V23.418H243.57V20.418ZM243.57 21.168H245.305V15.168H243.57V21.168ZM245.331 21.1678C246.708 21.1556 248.165 20.7886 249.357 19.7439L245.401 15.2327C245.434 15.2035 245.468 15.1806 245.497 15.164C245.526 15.1477 245.544 15.1417 245.545 15.1413C245.546 15.1412 245.526 15.1476 245.483 15.1541C245.438 15.1607 245.371 15.1673 245.278 15.1681L245.331 21.1678ZM249.34 19.7587C250.669 18.611 251.152 17.0447 251.152 15.5547H245.152C245.152 15.6749 245.134 15.6562 245.174 15.5567C245.194 15.5064 245.225 15.4451 245.271 15.3807C245.317 15.3161 245.368 15.2612 245.418 15.2178L249.34 19.7587ZM251.152 15.5547C251.152 14.2164 250.788 12.7473 249.667 11.5849L245.349 15.7511C245.297 15.6968 245.252 15.6382 245.217 15.5799C245.183 15.5222 245.163 15.4742 245.152 15.4434C245.132 15.3851 245.152 15.4076 245.152 15.5547H251.152ZM249.703 11.6237C248.512 10.344 246.918 9.98828 245.562 9.98828V15.9883C245.751 15.9883 245.783 16.0139 245.716 15.9903C245.679 15.9774 245.616 15.9512 245.541 15.9031C245.464 15.8543 245.385 15.7905 245.312 15.7122L249.703 11.6237ZM245.562 9.98828C244.175 9.98828 242.791 10.4111 241.663 11.4316L245.689 15.8809C245.667 15.9002 245.639 15.9215 245.606 15.9412C245.573 15.9609 245.542 15.9746 245.518 15.9833C245.467 16.0012 245.471 15.9883 245.562 15.9883V9.98828ZM241.683 11.414C240.495 12.4699 239.938 13.8878 239.938 15.3789H245.938C245.938 15.3739 245.937 15.4624 245.88 15.5968C245.819 15.7369 245.734 15.8404 245.669 15.8985L241.683 11.414ZM242.938 12.3789H240.09V18.3789H242.938V12.3789ZM243.09 15.3789C243.09 15.063 243.164 14.8307 243.307 14.6078L238.256 11.3688C237.477 12.5833 237.09 13.9448 237.09 15.3789H243.09ZM243.294 14.6271C243.442 14.3999 243.656 14.1943 244.027 14.0159L241.426 8.60913C240.14 9.22757 239.058 10.1391 238.268 11.3495L243.294 14.6271ZM244.038 14.0107C244.422 13.824 244.9 13.7031 245.527 13.7031V7.70312C244.092 7.70312 242.703 7.98855 241.415 8.61426L244.038 14.0107ZM245.527 13.7031C246.733 13.7031 247.278 14.0005 247.544 14.2364L251.526 9.74796C249.854 8.26512 247.728 7.70312 245.527 7.70312V13.7031ZM247.563 14.2533C247.77 14.4334 248 14.7303 248 15.5547H254C254 13.3322 253.253 11.2541 251.507 9.7311L247.563 14.2533ZM248 15.5547C248 15.6274 247.991 15.7435 247.832 15.9631L252.692 19.4822C253.517 18.3424 254 17.0132 254 15.5547H248ZM247.828 15.9683C247.661 16.1996 247.456 16.3716 247.157 16.5047L249.593 21.9875C250.841 21.4331 251.893 20.5895 252.695 19.4771L247.828 15.9683ZM247.405 22.085C247.853 22.2382 247.997 22.4031 248.055 22.4857L252.96 19.03C252.05 17.7375 250.772 16.8947 249.345 16.4072L247.405 22.085ZM248.068 22.5041C248.15 22.6187 248.246 22.8089 248.246 23.2188H254.246C254.246 21.7223 253.85 20.2719 252.947 19.0115L248.068 22.5041ZM248.246 23.2188C248.246 23.9751 248.028 24.3252 247.709 24.5996L251.619 29.1504C253.409 27.6123 254.246 25.5249 254.246 23.2188H248.246ZM247.701 24.6068C247.319 24.9371 246.693 25.2344 245.527 25.2344V31.2344C247.783 31.2344 249.915 30.6254 251.628 29.1432L247.701 24.6068ZM245.527 25.2344C244.442 25.2344 243.823 24.9572 243.42 24.62L239.572 29.2237C241.263 30.6366 243.332 31.2344 245.527 31.2344V25.2344ZM243.42 24.62C243.104 24.3561 242.926 24.06 242.926 23.4297H236.926C236.926 25.7056 237.794 27.7377 239.572 29.2237L243.42 24.62ZM239.926 26.4297H242.773V20.4297H239.926V26.4297ZM239.773 23.4297C239.773 24.922 240.306 26.3537 241.472 27.4464L245.575 23.0692C245.626 23.1167 245.692 23.2012 245.736 23.3105C245.779 23.4138 245.773 23.4679 245.773 23.4297H239.773ZM241.489 27.4622C242.672 28.5547 244.14 28.9609 245.562 28.9609V22.9609C245.41 22.9609 245.365 22.9398 245.392 22.949C245.406 22.9538 245.432 22.9644 245.465 22.984C245.498 23.0038 245.53 23.0277 245.558 23.0534L241.489 27.4622ZM245.562 28.9609C246.983 28.9609 248.48 28.5727 249.683 27.4622L245.614 23.0534C245.647 23.0224 245.684 22.9959 245.719 22.9753C245.753 22.955 245.779 22.9454 245.788 22.9423C245.804 22.9368 245.742 22.9609 245.562 22.9609V28.9609ZM249.683 27.4622C250.972 26.2725 251.41 24.6907 251.41 23.2188H245.41C245.41 23.3844 245.386 23.4093 245.409 23.3467C245.422 23.3139 245.444 23.2651 245.482 23.2085C245.519 23.1514 245.565 23.0985 245.614 23.0534L249.683 27.4622ZM251.41 23.2188C251.41 21.7025 250.939 20.1167 249.635 18.9277L245.592 23.3614C245.552 23.3253 245.513 23.2807 245.479 23.2297C245.444 23.1791 245.423 23.1341 245.41 23.1022C245.387 23.0401 245.41 23.0612 245.41 23.2188H251.41ZM249.635 18.9277C248.344 17.7512 246.704 17.418 245.246 17.418V23.418C245.547 23.418 245.698 23.4538 245.743 23.4676C245.776 23.4778 245.699 23.4591 245.592 23.3614L249.635 18.9277ZM245.246 17.418H243.57V23.418H245.246V17.418ZM246.57 20.418V18.168H240.57V20.418H246.57Z" fill="#FF303F"/>
<circle cx="246" cy="20" r="18.5" fill="#FF303F" stroke="#FF303F" stroke-width="3"/>
<path d="M243.57 18.168H245.305C246.18 18.1602 246.871 17.9336 247.379 17.4883C247.895 17.043 248.152 16.3984 248.152 15.5547C248.152 14.7422 247.938 14.1133 247.508 13.668C247.086 13.2148 246.438 12.9883 245.562 12.9883C244.797 12.9883 244.168 13.2109 243.676 13.6562C243.184 14.0938 242.938 14.668 242.938 15.3789H240.09C240.09 14.5039 240.32 13.707 240.781 12.9883C241.25 12.2695 241.898 11.7109 242.727 11.3125C243.562 10.9062 244.496 10.7031 245.527 10.7031C247.23 10.7031 248.566 11.1328 249.535 11.9922C250.512 12.8438 251 14.0312 251 15.5547C251 16.3203 250.754 17.043 250.262 17.7227C249.777 18.3945 249.148 18.9023 248.375 19.2461C249.312 19.5664 250.023 20.0703 250.508 20.7578C251 21.4453 251.246 22.2656 251.246 23.2188C251.246 24.75 250.719 25.9688 249.664 26.875C248.617 27.7812 247.238 28.2344 245.527 28.2344C243.887 28.2344 242.543 27.7969 241.496 26.9219C240.449 26.0469 239.926 24.8828 239.926 23.4297H242.773C242.773 24.1797 243.023 24.7891 243.523 25.2578C244.031 25.7266 244.711 25.9609 245.562 25.9609C246.445 25.9609 247.141 25.7266 247.648 25.2578C248.156 24.7891 248.41 24.1094 248.41 23.2188C248.41 22.3203 248.145 21.6289 247.613 21.1445C247.082 20.6602 246.293 20.418 245.246 20.418H243.57V18.168Z" fill="white"/>
<path d="M243.57 18.168V15.168H240.57V18.168H243.57ZM245.305 18.168V21.168H245.318L245.331 21.1678L245.305 18.168ZM247.379 17.4883L245.418 15.2178L245.409 15.2252L245.401 15.2327L247.379 17.4883ZM247.508 13.668L245.312 15.7122L245.33 15.7318L245.349 15.7511L247.508 13.668ZM243.676 13.6562L245.669 15.8985L245.679 15.8897L245.689 15.8809L243.676 13.6562ZM242.938 15.3789V18.3789H245.938V15.3789H242.938ZM240.09 15.3789H237.09V18.3789H240.09V15.3789ZM240.781 12.9883L238.268 11.3495L238.262 11.3591L238.256 11.3688L240.781 12.9883ZM242.727 11.3125L244.027 14.0159L244.038 14.0107L242.727 11.3125ZM249.535 11.9922L247.544 14.2364L247.554 14.2449L247.563 14.2533L249.535 11.9922ZM250.262 17.7227L247.832 15.9631L247.828 15.9683L250.262 17.7227ZM248.375 19.2461L247.157 16.5047L240.166 19.6116L247.405 22.085L248.375 19.2461ZM250.508 20.7578L248.055 22.4857L248.062 22.4949L248.068 22.5041L250.508 20.7578ZM249.664 26.875L247.709 24.5996L247.701 24.6068L249.664 26.875ZM239.926 23.4297V20.4297H236.926V23.4297H239.926ZM242.773 23.4297H245.773V20.4297H242.773V23.4297ZM243.523 25.2578L241.472 27.4464L241.48 27.4544L241.489 27.4622L243.523 25.2578ZM243.57 20.418H240.57V23.418H243.57V20.418ZM243.57 21.168H245.305V15.168H243.57V21.168ZM245.331 21.1678C246.708 21.1556 248.165 20.7886 249.357 19.7439L245.401 15.2327C245.434 15.2035 245.468 15.1806 245.497 15.164C245.526 15.1477 245.544 15.1417 245.545 15.1413C245.546 15.1412 245.526 15.1476 245.483 15.1541C245.438 15.1607 245.371 15.1673 245.278 15.1681L245.331 21.1678ZM249.34 19.7587C250.669 18.611 251.152 17.0447 251.152 15.5547H245.152C245.152 15.6749 245.134 15.6562 245.174 15.5567C245.194 15.5064 245.225 15.4451 245.271 15.3807C245.317 15.3161 245.368 15.2612 245.418 15.2178L249.34 19.7587ZM251.152 15.5547C251.152 14.2164 250.788 12.7473 249.667 11.5849L245.349 15.7511C245.297 15.6968 245.252 15.6382 245.217 15.5799C245.183 15.5222 245.163 15.4742 245.152 15.4434C245.132 15.3851 245.152 15.4076 245.152 15.5547H251.152ZM249.703 11.6237C248.512 10.344 246.918 9.98828 245.562 9.98828V15.9883C245.751 15.9883 245.783 16.0139 245.716 15.9903C245.679 15.9774 245.616 15.9512 245.541 15.9031C245.464 15.8543 245.385 15.7905 245.312 15.7122L249.703 11.6237ZM245.562 9.98828C244.175 9.98828 242.791 10.4111 241.663 11.4316L245.689 15.8809C245.667 15.9002 245.639 15.9215 245.606 15.9412C245.573 15.9609 245.542 15.9746 245.518 15.9833C245.467 16.0012 245.471 15.9883 245.562 15.9883V9.98828ZM241.683 11.414C240.495 12.4699 239.938 13.8878 239.938 15.3789H245.938C245.938 15.3739 245.937 15.4624 245.88 15.5968C245.819 15.7369 245.734 15.8404 245.669 15.8985L241.683 11.414ZM242.938 12.3789H240.09V18.3789H242.938V12.3789ZM243.09 15.3789C243.09 15.063 243.164 14.8307 243.307 14.6078L238.256 11.3688C237.477 12.5833 237.09 13.9448 237.09 15.3789H243.09ZM243.294 14.6271C243.442 14.3999 243.656 14.1943 244.027 14.0159L241.426 8.60913C240.14 9.22757 239.058 10.1391 238.268 11.3495L243.294 14.6271ZM244.038 14.0107C244.422 13.824 244.9 13.7031 245.527 13.7031V7.70312C244.092 7.70312 242.703 7.98855 241.415 8.61426L244.038 14.0107ZM245.527 13.7031C246.733 13.7031 247.278 14.0005 247.544 14.2364L251.526 9.74796C249.854 8.26512 247.728 7.70312 245.527 7.70312V13.7031ZM247.563 14.2533C247.77 14.4334 248 14.7303 248 15.5547H254C254 13.3322 253.253 11.2541 251.507 9.7311L247.563 14.2533ZM248 15.5547C248 15.6274 247.991 15.7435 247.832 15.9631L252.692 19.4822C253.517 18.3424 254 17.0132 254 15.5547H248ZM247.828 15.9683C247.661 16.1996 247.456 16.3716 247.157 16.5047L249.593 21.9875C250.841 21.4331 251.893 20.5895 252.695 19.4771L247.828 15.9683ZM247.405 22.085C247.853 22.2382 247.997 22.4031 248.055 22.4857L252.96 19.03C252.05 17.7375 250.772 16.8947 249.345 16.4072L247.405 22.085ZM248.068 22.5041C248.15 22.6187 248.246 22.8089 248.246 23.2188H254.246C254.246 21.7223 253.85 20.2719 252.947 19.0115L248.068 22.5041ZM248.246 23.2188C248.246 23.9751 248.028 24.3252 247.709 24.5996L251.619 29.1504C253.409 27.6123 254.246 25.5249 254.246 23.2188H248.246ZM247.701 24.6068C247.319 24.9371 246.693 25.2344 245.527 25.2344V31.2344C247.783 31.2344 249.915 30.6254 251.628 29.1432L247.701 24.6068ZM245.527 25.2344C244.442 25.2344 243.823 24.9572 243.42 24.62L239.572 29.2237C241.263 30.6366 243.332 31.2344 245.527 31.2344V25.2344ZM243.42 24.62C243.104 24.3561 242.926 24.06 242.926 23.4297H236.926C236.926 25.7056 237.794 27.7377 239.572 29.2237L243.42 24.62ZM239.926 26.4297H242.773V20.4297H239.926V26.4297ZM239.773 23.4297C239.773 24.922 240.306 26.3537 241.472 27.4464L245.575 23.0692C245.626 23.1167 245.692 23.2012 245.736 23.3105C245.779 23.4138 245.773 23.4679 245.773 23.4297H239.773ZM241.489 27.4622C242.672 28.5547 244.14 28.9609 245.562 28.9609V22.9609C245.41 22.9609 245.365 22.9398 245.392 22.949C245.406 22.9538 245.432 22.9644 245.465 22.984C245.498 23.0038 245.53 23.0277 245.558 23.0534L241.489 27.4622ZM245.562 28.9609C246.983 28.9609 248.48 28.5727 249.683 27.4622L245.614 23.0534C245.647 23.0224 245.684 22.9959 245.719 22.9753C245.753 22.955 245.779 22.9454 245.788 22.9423C245.804 22.9368 245.742 22.9609 245.562 22.9609V28.9609ZM249.683 27.4622C250.972 26.2725 251.41 24.6907 251.41 23.2188H245.41C245.41 23.3844 245.386 23.4093 245.409 23.3467C245.422 23.3139 245.444 23.2651 245.482 23.2085C245.519 23.1514 245.565 23.0985 245.614 23.0534L249.683 27.4622ZM251.41 23.2188C251.41 21.7025 250.939 20.1167 249.635 18.9277L245.592 23.3614C245.552 23.3253 245.513 23.2807 245.479 23.2297C245.444 23.1791 245.423 23.1341 245.41 23.1022C245.387 23.0401 245.41 23.0612 245.41 23.2188H251.41ZM249.635 18.9277C248.344 17.7512 246.704 17.418 245.246 17.418V23.418C245.547 23.418 245.698 23.4538 245.743 23.4676C245.776 23.4778 245.699 23.4591 245.592 23.3614L249.635 18.9277ZM245.246 17.418H243.57V23.418H245.246V17.418ZM246.57 20.418V18.168H240.57V20.418H246.57Z" fill="white"/>
</svg>
